{"accessors": [{"bufferView": 0, "componentType": 5126, "count": 2143, "max": [0.9999988079071045, 0.9999988079071045, 1.0000008344650269], "min": [-1.0, -1.0, -1.0], "type": "VEC3"}, {"bufferView": 1, "componentType": 5125, "count": 4724, "type": "SCALAR"}, {"bufferView": 2, "componentType": 5126, "count": 2143, "type": "VEC3"}, {"bufferView": 3, "componentType": 5126, "count": 2143, "type": "VEC4"}, {"bufferView": 4, "componentType": 5126, "count": 2143, "type": "VEC2"}], "asset": {"version": "2.0"}, "bufferViews": [{"buffer": 0, "byteLength": 25716, "target": 34962}, {"buffer": 1, "byteLength": 18896, "target": 34963}, {"buffer": 2, "byteLength": 25716, "target": 34962}, {"buffer": 3, "byteLength": 34288, "target": 34962}, {"buffer": 4, "byteLength": 17144, "target": 34962}], "buffers": [{"byteLength": 25716, "uri": "data:application/octet-stream;base64,"}, {"byteLength": 18896, "uri": "data:application/octet-stream;base64,"}, {"byteLength": 25716, "uri": "data:application/octet-stream;base64,"}, {"byteLength": 34288, "uri": "data:application/octet-stream;base64,"}, {"byteLength": 17144, "uri": "data:application/octet-stream;base64,"}], "images": [{"uri": "textures/T_SpaceSkybox (8).png"}], "materials": [{"pbrMetallicRoughness": {"baseColorTexture": {"index": 0}, "metallicFactor": 0.0, "roughnessFactor": 0.6}, "doubleSided": false, "emissiveTexture": {"index": 1}, "emissiveFactor": [0.7, 0.7, 0.7]}], "meshes": [{"name": "Sphere_Material.001_0", "primitives": [{"attributes": {"NORMAL": 2, "POSITION": 0, "TANGENT": 3, "TEXCOORD_0": 4}, "indices": 1, "material": 0, "mode": 5}]}], "nodes": [{"mesh": 0, "name": "Sphere_Material.001_0"}, {"children": [0], "name": "Sphere", "rotation": [-0.7071068387876757, 0.0, 0.0, 0.7071067235854146], "scale": [50000.0, 50000.0, 50000.0], "translation": [0.0, 0.0, 0.0]}, {"children": [1], "name": "RootNode"}, {"children": [2], "name": "HDRI Space Skybox Panorama H", "rotation": [1.1102230246251565e-16, 0.0, 0.0, 1.0], "scale": [0.009999999776482582, 0.009999999776482582, 0.009999999776482582], "translation": [0.0, 0.0, 0.0]}], "samplers": [{"magFilter": 9729, "minFilter": 9729, "wrapS": 10497, "wrapT": 10497}], "scene": 0, "scenes": [{"nodes": [3]}], "textures": [{"source": 0, "sampler": 0}, {"source": 0, "sampler": 0}]}